<svg xmlns="http://www.w3.org/2000/svg" id="canvas" viewBox="232.440 245.127 626.931 123.997"><path d="M 260.00,271.72 C 258.88 272.40, 258.41 273.30, 257.69 275.39 C 256.96 277.48, 256.87 278.85, 256.37 282.16 C 255.88 285.48, 255.92 287.79, 255.20 291.98 C 254.49 296.17, 253.96 298.51, 252.81 303.11 C 251.66 307.71, 250.89 310.25, 249.46 314.96 C 248.03 319.68, 247.16 322.13, 245.64 326.68 C 244.12 331.23, 243.29 333.56, 241.86 337.70 C 240.42 341.83, 239.65 343.83, 238.46 347.36 C 237.27 350.88, 236.42 352.47, 235.90 355.33 C 235.37 358.18, 235.24 360.20, 235.82 361.63 C 236.39 363.06, 237.51 363.38, 238.75 362.47 C 240.00 361.57, 240.94 359.78, 242.02 357.11 C 243.10 354.43, 243.18 352.65, 244.15 349.09 C 245.12 345.53, 245.62 343.48, 246.86 339.31 C 248.11 335.14, 248.90 332.80, 250.37 328.23 C 251.84 323.66, 252.69 321.19, 254.22 316.46 C 255.75 311.73, 256.57 309.18, 258.02 304.58 C 259.47 299.97, 260.23 297.63, 261.45 293.42 C 262.68 289.21, 263.45 286.96, 264.14 283.53 C 264.83 280.11, 265.09 278.60, 264.91 276.29 C 264.74 273.98, 264.25 272.91, 263.27 271.99 C 262.28 271.08, 261.11 271.04, 260.00 271.72" style="stroke: black; fill: black;"/><path d="M 258.59,264.79 C 259.81 265.01, 260.47 264.35, 261.99 263.70 C 263.50 263.06, 264.21 262.68, 266.17 261.57 C 268.14 260.46, 269.13 259.34, 271.81 258.15 C 274.49 256.96, 276.19 256.36, 279.57 255.63 C 282.95 254.90, 285.00 254.62, 288.70 254.50 C 292.40 254.38, 294.49 254.47, 298.07 255.03 C 301.65 255.58, 303.54 256.09, 306.60 257.28 C 309.66 258.46, 311.17 259.36, 313.36 260.96 C 315.55 262.55, 316.36 263.48, 317.54 265.25 C 318.73 267.03, 319.08 267.84, 319.26 269.83 C 319.45 271.82, 319.35 272.78, 318.47 275.21 C 317.60 277.64, 316.99 279.10, 314.89 281.97 C 312.80 284.85, 311.29 286.55, 308.00 289.58 C 304.70 292.61, 302.57 294.27, 298.43 297.13 C 294.28 299.99, 291.78 301.43, 287.27 303.88 C 282.77 306.34, 280.19 307.54, 275.89 309.41 C 271.60 311.27, 269.31 311.93, 265.81 313.21 C 262.31 314.49, 260.64 314.73, 258.39 315.81 C 256.15 316.88, 255.22 317.57, 254.58 318.58 C 253.95 319.60, 254.11 320.35, 255.22 320.88 C 256.33 321.41, 257.59 321.69, 260.12 321.24 C 262.66 320.80, 264.34 320.10, 267.91 318.64 C 271.48 317.19, 273.66 316.08, 278.00 313.96 C 282.33 311.85, 284.93 310.62, 289.57 308.08 C 294.21 305.54, 296.78 304.13, 301.19 301.26 C 305.60 298.39, 307.89 296.82, 311.62 293.75 C 315.35 290.68, 317.15 289.10, 319.85 285.89 C 322.56 282.69, 323.84 281.08, 325.15 277.73 C 326.46 274.38, 326.70 272.44, 326.38 269.15 C 326.07 265.86, 325.37 264.06, 323.55 261.30 C 321.74 258.53, 320.27 257.32, 317.33 255.31 C 314.38 253.30, 312.48 252.53, 308.82 251.24 C 305.16 249.95, 303.06 249.50, 299.02 248.88 C 294.98 248.26, 292.74 248.16, 288.63 248.13 C 284.52 248.10, 282.38 248.28, 278.46 248.73 C 274.53 249.18, 272.45 249.37, 269.03 250.36 C 265.60 251.36, 263.74 252.12, 261.32 253.71 C 258.91 255.29, 258.05 256.53, 256.97 258.31 C 255.88 260.08, 255.59 261.28, 255.92 262.57 C 256.25 263.87, 257.38 264.56, 258.59 264.79" style="stroke: black; fill: black;"/><path d="M 324.37,320.11 C 323.10 320.39, 322.49 321.14, 321.20 322.66 C 319.90 324.17, 319.08 325.20, 317.89 327.68 C 316.70 330.17, 316.26 332.06, 315.26 335.09 C 314.27 338.13, 313.61 339.81, 312.92 342.86 C 312.22 345.91, 311.83 347.51, 311.79 350.33 C 311.75 353.15, 311.83 354.58, 312.71 356.98 C 313.58 359.37, 314.30 360.62, 316.16 362.32 C 318.03 364.02, 319.36 364.77, 322.03 365.46 C 324.71 366.16, 326.43 366.37, 329.56 365.78 C 332.69 365.20, 334.36 364.21, 337.68 362.54 C 341.01 360.87, 342.75 359.76, 346.19 357.43 C 349.64 355.10, 351.50 353.69, 354.92 350.89 C 358.33 348.09, 360.15 346.41, 363.27 343.42 C 366.38 340.43, 367.88 338.72, 370.48 335.93 C 373.07 333.13, 374.62 331.89, 376.23 329.46 C 377.85 327.03, 378.33 325.66, 378.54 323.77 C 378.75 321.87, 378.34 320.90, 377.28 319.98 C 376.22 319.06, 374.94 318.72, 373.23 319.15 C 371.51 319.59, 370.26 320.27, 368.71 322.13 C 367.16 324.00, 366.59 325.63, 365.47 328.48 C 364.36 331.33, 364.10 333.25, 363.11 336.38 C 362.13 339.52, 361.39 341.18, 360.54 344.15 C 359.70 347.11, 359.28 348.59, 358.88 351.21 C 358.49 353.83, 358.39 355.16, 358.56 357.26 C 358.73 359.35, 359.10 360.34, 359.73 361.68 C 360.36 363.02, 360.92 363.40, 361.71 363.94 C 362.50 364.48, 363.00 364.57, 363.67 364.37 C 364.34 364.16, 364.72 363.42, 365.06 362.90 C 365.40 362.38, 365.24 362.32, 365.38 361.77 C 365.53 361.22, 365.73 361.04, 365.79 360.14 C 365.85 359.24, 365.52 358.72, 365.68 357.25 C 365.84 355.77, 366.05 354.90, 366.61 352.77 C 367.17 350.64, 367.59 349.28, 368.49 346.62 C 369.39 343.95, 369.85 342.22, 371.12 339.43 C 372.38 336.64, 373.54 335.17, 374.82 332.68 C 376.10 330.18, 376.96 328.97, 377.53 326.96 C 378.10 324.95, 378.00 323.94, 377.66 322.63 C 377.31 321.32, 376.66 320.69, 375.78 320.41 C 374.90 320.12, 374.42 320.25, 373.25 321.19 C 372.07 322.13, 371.45 322.99, 369.92 325.11 C 368.40 327.24, 367.77 329.00, 365.62 331.82 C 363.46 334.64, 362.03 336.34, 359.15 339.23 C 356.27 342.12, 354.50 343.72, 351.22 346.26 C 347.94 348.81, 346.07 350.07, 342.77 351.95 C 339.47 353.83, 337.69 354.63, 334.72 355.67 C 331.75 356.71, 330.23 356.73, 327.93 357.17 C 325.64 357.61, 324.76 357.84, 323.25 357.87 C 321.74 357.89, 321.19 357.83, 320.38 357.29 C 319.56 356.74, 319.34 356.38, 319.17 355.13 C 319.01 353.88, 319.14 353.05, 319.55 351.05 C 319.96 349.05, 320.37 347.70, 321.21 345.14 C 322.06 342.59, 322.61 341.01, 323.78 338.27 C 324.94 335.53, 326.14 334.01, 327.04 331.44 C 327.93 328.87, 328.14 327.46, 328.24 325.43 C 328.34 323.40, 328.31 322.35, 327.53 321.28 C 326.76 320.22, 325.64 319.84, 324.37 320.11" style="stroke: black; fill: black;"/><path d="M 405.43,322.20 C 404.32 322.30, 403.96 322.65, 402.85 323.66 C 401.74 324.67, 401.03 325.32, 399.86 327.25 C 398.69 329.19, 398.19 330.70, 397.01 333.34 C 395.83 335.98, 395.26 337.72, 393.97 340.44 C 392.67 343.15, 391.64 344.54, 390.54 346.91 C 389.43 349.29, 388.70 350.43, 388.44 352.32 C 388.19 354.20, 388.37 355.22, 389.25 356.33 C 390.13 357.44, 391.23 357.97, 392.85 357.86 C 394.48 357.75, 395.67 357.41, 397.38 355.76 C 399.09 354.11, 399.50 352.42, 401.40 349.63 C 403.30 346.84, 404.31 344.86, 406.86 341.82 C 409.42 338.78, 411.12 337.10, 414.17 334.43 C 417.21 331.77, 419.05 330.41, 422.09 328.50 C 425.13 326.59, 426.89 326.00, 429.36 324.89 C 431.82 323.77, 432.92 323.38, 434.43 322.92 C 435.94 322.45, 436.37 322.33, 436.90 322.56 C 437.43 322.79, 437.27 323.03, 437.08 324.09 C 436.89 325.14, 436.51 325.89, 435.95 327.82 C 435.40 329.75, 435.11 331.10, 434.31 333.74 C 433.50 336.37, 433.03 338.11, 431.91 340.98 C 430.79 343.85, 429.76 345.39, 428.71 348.08 C 427.66 350.78, 427.10 352.20, 426.66 354.45 C 426.23 356.70, 426.33 357.81, 426.54 359.33 C 426.75 360.85, 427.07 361.44, 427.73 362.03 C 428.39 362.63, 429.08 362.61, 429.86 362.31 C 430.64 362.00, 430.81 361.58, 431.63 360.52 C 432.44 359.46, 432.93 358.84, 433.94 357.02 C 434.94 355.20, 435.50 353.98, 436.65 351.41 C 437.81 348.84, 438.42 347.15, 439.70 344.17 C 440.98 341.20, 442.03 339.57, 443.03 336.53 C 444.04 333.50, 444.65 331.83, 444.74 329.00 C 444.82 326.17, 444.51 324.61, 443.46 322.41 C 442.41 320.20, 441.47 319.14, 439.50 317.96 C 437.52 316.78, 436.21 316.43, 433.59 316.51 C 430.97 316.58, 429.40 317.00, 426.40 318.35 C 423.41 319.70, 421.84 320.98, 418.59 323.26 C 415.35 325.54, 413.50 326.98, 410.17 329.75 C 406.85 332.53, 405.08 334.25, 401.96 337.12 C 398.85 339.99, 397.07 341.51, 394.60 344.09 C 392.12 346.68, 390.67 347.88, 389.59 350.03 C 388.51 352.19, 388.78 353.47, 389.18 354.86 C 389.58 356.25, 390.45 356.80, 391.59 356.96 C 392.73 357.12, 393.54 356.83, 394.87 355.66 C 396.21 354.49, 396.86 353.33, 398.25 351.11 C 399.65 348.89, 400.32 347.24, 401.84 344.56 C 403.37 341.88, 404.48 340.34, 405.90 337.69 C 407.31 335.04, 408.17 333.59, 408.90 331.30 C 409.62 329.00, 409.62 327.84, 409.51 326.22 C 409.41 324.59, 409.21 323.96, 408.39 323.16 C 407.57 322.36, 406.54 322.10, 405.43 322.20" style="stroke: black; fill: black;"/><path d="M 492.50,275.07 C 491.44 275.22, 491.14 275.45, 489.99 276.66 C 488.84 277.87, 487.93 278.55, 486.74 281.12 C 485.56 283.70, 485.52 285.80, 484.06 289.54 C 482.60 293.28, 481.54 295.55, 479.46 299.81 C 477.39 304.07, 476.03 306.48, 473.69 310.84 C 471.34 315.20, 469.99 317.48, 467.72 321.61 C 465.46 325.75, 464.32 327.85, 462.36 331.50 C 460.41 335.16, 459.36 336.83, 457.96 339.88 C 456.55 342.93, 455.94 344.29, 455.34 346.76 C 454.75 349.22, 454.74 350.42, 454.99 352.21 C 455.24 354.00, 455.79 354.72, 456.59 355.70 C 457.40 356.67, 458.18 356.94, 459.00 357.10 C 459.81 357.26, 460.42 357.10, 460.69 356.50 C 460.95 355.90, 460.43 354.65, 460.33 354.10 C 460.23 353.56, 460.14 353.88, 460.21 353.77 C 460.27 353.66, 460.55 353.85, 460.67 353.54 C 460.79 353.23, 460.55 353.23, 460.82 352.24 C 461.08 351.25, 461.35 350.57, 461.98 348.60 C 462.62 346.62, 462.92 345.31, 463.99 342.38 C 465.06 339.45, 465.69 337.62, 467.34 333.95 C 468.99 330.28, 470.06 328.15, 472.23 324.03 C 474.40 319.91, 475.73 317.63, 478.19 313.33 C 480.64 309.03, 482.05 306.65, 484.49 302.52 C 486.93 298.39, 488.23 296.21, 490.39 292.70 C 492.55 289.19, 494.08 287.69, 495.28 284.97 C 496.48 282.25, 496.38 280.92, 496.39 279.10 C 496.39 277.29, 496.08 276.70, 495.30 275.90 C 494.52 275.09, 493.56 274.91, 492.50 275.07" style="stroke: black; fill: black;"/><path d="M 512.75,308.09 C 512.04 307.06, 511.23 306.63, 509.28 306.23 C 507.34 305.83, 505.86 305.44, 503.02 306.09 C 500.18 306.74, 498.40 307.85, 495.08 309.49 C 491.76 311.13, 489.90 312.30, 486.41 314.30 C 482.91 316.30, 480.92 317.42, 477.58 319.49 C 474.25 321.56, 472.37 322.50, 469.74 324.65 C 467.11 326.80, 465.85 327.93, 464.43 330.25 C 463.02 332.56, 462.68 333.89, 462.66 336.24 C 462.65 338.58, 462.99 339.93, 464.34 341.98 C 465.69 344.02, 466.83 345.18, 469.40 346.48 C 471.97 347.78, 473.74 347.99, 477.18 348.48 C 480.61 348.96, 482.60 348.85, 486.57 348.92 C 490.53 348.98, 492.84 348.94, 497.00 348.79 C 501.17 348.65, 503.47 348.71, 507.39 348.19 C 511.30 347.67, 514.81 347.36, 516.56 346.19 C 518.32 345.02, 518.10 343.15, 516.18 342.35 C 514.26 341.55, 510.82 342.18, 506.97 342.21 C 503.12 342.23, 500.92 342.52, 496.92 342.48 C 492.93 342.43, 490.66 342.41, 487.01 341.99 C 483.36 341.57, 481.56 341.06, 478.69 340.37 C 475.81 339.69, 474.57 339.09, 472.62 338.55 C 470.67 338.01, 469.86 338.09, 468.94 337.70 C 468.02 337.30, 467.83 337.28, 468.02 336.60 C 468.20 335.92, 468.61 335.58, 469.87 334.31 C 471.14 333.05, 472.07 332.11, 474.33 330.27 C 476.59 328.43, 478.09 327.10, 481.15 325.12 C 484.21 323.14, 486.23 322.02, 489.62 320.37 C 493.01 318.72, 494.96 317.89, 498.11 316.88 C 501.26 315.87, 502.98 316.00, 505.38 315.31 C 507.78 314.62, 508.61 314.20, 510.10 313.41 C 511.60 312.62, 512.33 312.42, 512.86 311.36 C 513.39 310.29, 513.47 309.11, 512.75 308.09" style="stroke: black; fill: black;"/><path d="M 584.47,307.49 C 584.13 306.33, 583.50 305.64, 581.93 304.93 C 580.37 304.21, 579.16 303.77, 576.63 303.91 C 574.11 304.04, 572.31 304.29, 569.32 305.61 C 566.33 306.93, 564.87 308.33, 561.68 310.50 C 558.50 312.67, 556.68 313.92, 553.39 316.45 C 550.11 318.98, 548.25 320.45, 545.25 323.14 C 542.26 325.83, 540.62 327.19, 538.44 329.89 C 536.26 332.59, 535.25 334.02, 534.36 336.65 C 533.48 339.27, 533.46 340.72, 534.02 343.02 C 534.59 345.32, 535.36 346.58, 537.20 348.14 C 539.04 349.71, 540.48 350.42, 543.22 350.86 C 545.96 351.29, 547.69 351.12, 550.89 350.33 C 554.10 349.54, 555.83 348.54, 559.24 346.91 C 562.64 345.28, 564.47 344.24, 567.92 342.17 C 571.37 340.09, 573.21 338.87, 576.51 336.51 C 579.80 334.15, 581.50 332.77, 584.39 330.38 C 587.29 327.99, 589.05 326.90, 590.99 324.56 C 592.92 322.22, 593.77 320.65, 594.06 318.70 C 594.34 316.75, 593.69 315.54, 592.43 314.82 C 591.17 314.10, 589.70 314.17, 587.76 315.12 C 585.82 316.07, 584.43 317.17, 582.75 319.56 C 581.07 321.94, 580.63 324.07, 579.35 327.05 C 578.07 330.02, 577.17 331.67, 576.33 334.44 C 575.49 337.20, 575.35 338.65, 575.17 340.85 C 574.99 343.06, 575.09 343.99, 575.44 345.47 C 575.80 346.94, 576.26 347.52, 576.94 348.23 C 577.61 348.93, 578.15 349.09, 578.82 348.98 C 579.48 348.88, 579.89 348.14, 580.27 347.70 C 580.64 347.27, 580.45 347.27, 580.69 346.81 C 580.92 346.34, 581.11 346.27, 581.43 345.38 C 581.75 344.49, 581.66 343.90, 582.28 342.36 C 582.89 340.82, 583.38 339.87, 584.51 337.69 C 585.64 335.51, 586.37 333.97, 587.91 331.46 C 589.46 328.95, 591.07 327.58, 592.23 325.14 C 593.39 322.71, 593.67 321.18, 593.72 319.27 C 593.78 317.35, 593.42 316.31, 592.52 315.56 C 591.62 314.80, 590.74 314.73, 589.23 315.47 C 587.71 316.22, 586.81 317.28, 584.96 319.28 C 583.10 321.27, 582.36 323.03, 579.93 325.44 C 577.50 327.86, 575.87 329.17, 572.82 331.37 C 569.76 333.57, 567.95 334.70, 564.67 336.44 C 561.39 338.17, 559.57 338.99, 556.42 340.05 C 553.27 341.11, 551.51 341.20, 548.94 341.72 C 546.37 342.24, 545.27 342.41, 543.58 342.66 C 541.88 342.90, 541.32 343.06, 540.48 342.94 C 539.64 342.82, 539.36 342.78, 539.38 342.06 C 539.41 341.34, 539.68 340.89, 540.60 339.34 C 541.52 337.80, 542.17 336.62, 543.98 334.33 C 545.80 332.05, 547.00 330.45, 549.67 327.93 C 552.33 325.42, 554.15 323.97, 557.30 321.75 C 560.45 319.54, 562.37 318.38, 565.43 316.86 C 568.49 315.34, 570.11 314.95, 572.60 314.18 C 575.08 313.40, 576.12 313.41, 577.85 312.98 C 579.58 312.54, 580.09 312.46, 581.25 312.01 C 582.41 311.55, 582.99 311.62, 583.64 310.72 C 584.28 309.81, 584.81 308.64, 584.47 307.49" style="stroke: black; fill: black;"/><path d="M 639.83,286.81 C 638.67 287.17, 638.19 287.77, 637.08 289.42 C 635.98 291.07, 635.43 292.21, 634.31 295.05 C 633.18 297.90, 632.87 300.01, 631.45 303.64 C 630.03 307.27, 629.08 309.40, 627.21 313.20 C 625.33 317.00, 624.12 319.05, 622.07 322.64 C 620.02 326.24, 618.89 328.08, 616.96 331.19 C 615.03 334.30, 613.79 335.66, 612.41 338.19 C 611.03 340.72, 610.58 341.99, 610.08 343.85 C 609.57 345.71, 609.78 346.41, 609.89 347.49 C 610.00 348.58, 610.19 348.82, 610.64 349.26 C 611.08 349.71, 611.52 349.76, 612.11 349.70 C 612.70 349.64, 612.80 349.57, 613.59 348.97 C 614.37 348.38, 614.92 348.17, 616.02 346.73 C 617.12 345.28, 617.79 344.23, 619.08 341.74 C 620.38 339.26, 620.86 337.53, 622.49 334.29 C 624.12 331.05, 625.20 329.19, 627.22 325.54 C 629.25 321.90, 630.49 319.84, 632.62 316.07 C 634.75 312.29, 635.94 310.21, 637.88 306.65 C 639.83 303.10, 641.15 301.30, 642.37 298.29 C 643.59 295.29, 643.89 293.78, 644.00 291.64 C 644.10 289.50, 643.75 288.55, 642.92 287.58 C 642.08 286.61, 641.00 286.44, 639.83 286.81" style="stroke: black; fill: black;"/><path d="M 640.67,271.63 C 641.79 271.89, 642.24 271.36, 643.49 270.95 C 644.75 270.55, 645.30 270.24, 646.94 269.59 C 648.57 268.94, 649.52 268.32, 651.66 267.70 C 653.79 267.08, 655.13 266.72, 657.61 266.49 C 660.09 266.26, 661.65 266.32, 664.07 266.55 C 666.49 266.78, 667.79 267.03, 669.71 267.65 C 671.64 268.27, 672.52 268.72, 673.67 269.66 C 674.83 270.60, 675.28 271.12, 675.50 272.36 C 675.72 273.59, 675.53 274.12, 674.78 275.82 C 674.02 277.52, 673.49 278.60, 671.72 280.84 C 669.95 283.09, 668.68 284.63, 665.93 287.04 C 663.18 289.46, 661.24 290.82, 657.97 292.94 C 654.71 295.06, 652.65 296.01, 649.62 297.62 C 646.58 299.23, 644.76 299.52, 642.79 300.98 C 640.83 302.44, 640.24 303.35, 639.81 304.92 C 639.38 306.50, 639.65 307.49, 640.64 308.85 C 641.64 310.20, 642.62 311.04, 644.80 311.72 C 646.97 312.40, 648.48 312.24, 651.50 312.24 C 654.52 312.24, 656.47 311.65, 659.91 311.72 C 663.35 311.80, 665.42 312.00, 668.69 312.63 C 671.96 313.26, 673.65 313.83, 676.26 314.86 C 678.88 315.89, 680.03 316.61, 681.77 317.78 C 683.52 318.96, 684.22 319.50, 684.98 320.73 C 685.74 321.97, 685.80 322.54, 685.58 323.94 C 685.36 325.34, 684.92 326.03, 683.88 327.72 C 682.84 329.41, 682.19 330.41, 680.37 332.38 C 678.54 334.36, 677.40 335.59, 674.76 337.58 C 672.13 339.57, 670.42 340.64, 667.18 342.34 C 663.93 344.04, 661.98 344.87, 658.54 346.08 C 655.09 347.28, 653.13 347.76, 649.95 348.37 C 646.77 348.97, 645.14 348.76, 642.64 349.11 C 640.15 349.46, 639.17 349.73, 637.48 350.11 C 635.78 350.49, 634.93 350.34, 634.16 351.01 C 633.39 351.67, 633.05 352.48, 633.62 353.45 C 634.19 354.41, 635.06 355.15, 637.01 355.83 C 638.96 356.50, 640.47 356.97, 643.36 356.82 C 646.26 356.66, 648.03 355.99, 651.50 355.05 C 654.97 354.12, 656.99 353.52, 660.72 352.16 C 664.44 350.79, 666.50 349.96, 670.12 348.22 C 673.74 346.49, 675.62 345.51, 678.83 343.48 C 682.04 341.44, 683.73 340.44, 686.17 338.04 C 688.61 335.64, 689.75 334.21, 691.03 331.46 C 692.31 328.70, 692.60 327.06, 692.57 324.26 C 692.55 321.47, 692.18 319.97, 690.90 317.49 C 689.62 315.00, 688.58 313.72, 686.18 311.83 C 683.79 309.94, 682.14 309.26, 678.93 308.02 C 675.72 306.78, 673.80 306.43, 670.15 305.62 C 666.51 304.81, 664.35 304.60, 660.71 303.96 C 657.06 303.31, 655.07 302.65, 651.92 302.38 C 648.78 302.12, 647.09 302.04, 644.99 302.63 C 642.88 303.22, 642.00 304.31, 641.40 305.32 C 640.81 306.34, 641.02 307.26, 642.01 307.71 C 643.00 308.16, 644.14 308.36, 646.35 307.56 C 648.56 306.77, 650.03 305.57, 653.08 303.74 C 656.12 301.91, 658.11 300.70, 661.56 298.42 C 665.01 296.14, 667.10 294.88, 670.32 292.34 C 673.55 289.81, 675.35 288.52, 677.70 285.74 C 680.05 282.95, 681.15 281.39, 682.06 278.42 C 682.97 275.46, 682.90 273.67, 682.25 270.89 C 681.60 268.12, 680.71 266.68, 678.82 264.55 C 676.93 262.43, 675.52 261.58, 672.81 260.26 C 670.11 258.94, 668.42 258.51, 665.28 257.96 C 662.15 257.41, 660.36 257.41, 657.12 257.49 C 653.88 257.57, 652.05 257.60, 649.10 258.38 C 646.15 259.16, 644.52 259.93, 642.37 261.37 C 640.23 262.82, 639.28 263.96, 638.38 265.61 C 637.48 267.27, 637.41 268.45, 637.87 269.65 C 638.33 270.85, 639.54 271.37, 640.67 271.63" style="stroke: black; fill: black;"/><path d="M 750.54,316.20 C 750.26 315.09, 749.77 314.35, 748.22 313.68 C 746.68 313.02, 745.34 312.53, 742.83 312.88 C 740.31 313.23, 738.59 313.81, 735.66 315.44 C 732.73 317.06, 731.25 318.64, 728.19 321.01 C 725.13 323.39, 723.32 324.72, 720.36 327.33 C 717.41 329.93, 715.69 331.30, 713.41 334.04 C 711.14 336.78, 709.95 338.24, 708.98 341.03 C 708.02 343.82, 707.97 345.47, 708.59 348.01 C 709.21 350.56, 709.99 351.94, 712.09 353.76 C 714.20 355.57, 715.86 356.57, 719.11 357.10 C 722.36 357.62, 724.42 357.06, 728.35 356.38 C 732.27 355.70, 734.50 355.03, 738.73 353.68 C 742.96 352.32, 745.36 351.46, 749.49 349.60 C 753.63 347.75, 755.78 346.64, 759.39 344.41 C 762.99 342.18, 764.78 340.96, 767.52 338.45 C 770.26 335.93, 771.61 334.61, 773.08 331.82 C 774.55 329.04, 774.81 327.34, 774.88 324.53 C 774.95 321.72, 774.58 320.22, 773.43 317.79 C 772.29 315.36, 771.23 314.12, 769.17 312.38 C 767.11 310.65, 765.61 309.99, 763.14 309.12 C 760.67 308.25, 759.17 308.09, 756.83 308.03 C 754.48 307.97, 753.15 308.26, 751.41 308.84 C 749.67 309.43, 749.03 310.06, 748.14 310.95 C 747.25 311.84, 746.98 312.43, 746.97 313.31 C 746.95 314.19, 747.46 314.79, 748.06 315.33 C 748.66 315.88, 749.06 315.78, 749.97 316.02 C 750.89 316.26, 751.37 316.43, 752.65 316.53 C 753.93 316.63, 754.82 316.37, 756.37 316.52 C 757.93 316.67, 758.84 316.81, 760.44 317.29 C 762.05 317.77, 763.04 318.13, 764.41 318.90 C 765.78 319.67, 766.52 320.06, 767.29 321.14 C 768.06 322.21, 768.36 322.81, 768.27 324.28 C 768.18 325.75, 767.89 326.57, 766.85 328.48 C 765.80 330.39, 765.16 331.63, 763.04 333.82 C 760.91 336.01, 759.40 337.35, 756.22 339.44 C 753.05 341.53, 751.00 342.64, 747.16 344.28 C 743.32 345.93, 740.95 346.70, 737.02 347.68 C 733.08 348.67, 730.85 349.00, 727.48 349.20 C 724.11 349.39, 722.54 348.84, 720.18 348.65 C 717.82 348.46, 716.90 348.60, 715.69 348.25 C 714.48 347.90, 714.19 347.80, 714.14 346.92 C 714.09 346.04, 714.47 345.48, 715.44 343.84 C 716.40 342.20, 717.08 340.95, 718.98 338.71 C 720.88 336.47, 722.24 334.92, 724.95 332.62 C 727.65 330.33, 729.52 329.03, 732.49 327.25 C 735.46 325.47, 737.29 324.81, 739.79 323.73 C 742.29 322.66, 743.39 322.53, 745.01 321.88 C 746.62 321.23, 746.94 321.02, 747.87 320.48 C 748.79 319.95, 749.09 320.06, 749.63 319.21 C 750.16 318.35, 750.82 317.30, 750.54 316.20" style="stroke: black; fill: black;"/><path d="M 834.23,267.48 C 833.27 267.25, 832.96 267.20, 831.70 267.82 C 830.44 268.45, 829.42 268.71, 827.94 270.63 C 826.45 272.54, 826.02 274.21, 824.28 277.41 C 822.54 280.61, 821.50 282.74, 819.23 286.63 C 816.96 290.52, 815.50 292.72, 812.93 296.87 C 810.36 301.01, 808.89 303.27, 806.38 307.36 C 803.88 311.45, 802.60 313.55, 800.39 317.34 C 798.18 321.12, 797.13 322.95, 795.34 326.27 C 793.55 329.59, 792.57 331.08, 791.44 333.92 C 790.32 336.77, 790.10 338.12, 789.71 340.51 C 789.33 342.91, 789.21 344.07, 789.53 345.89 C 789.84 347.70, 790.48 348.64, 791.29 349.60 C 792.10 350.56, 792.74 350.70, 793.59 350.69 C 794.43 350.67, 795.01 350.10, 795.49 349.51 C 795.98 348.92, 795.91 348.55, 796.02 347.73 C 796.13 346.90, 795.95 346.57, 796.03 345.39 C 796.11 344.20, 796.01 343.60, 796.43 341.80 C 796.85 339.99, 797.27 338.95, 798.13 336.36 C 798.98 333.77, 799.34 332.14, 800.72 328.85 C 802.11 325.57, 803.04 323.70, 805.05 319.94 C 807.05 316.18, 808.28 314.07, 810.75 310.04 C 813.23 306.01, 814.70 303.79, 817.42 299.79 C 820.15 295.79, 821.68 293.63, 824.37 290.04 C 827.07 286.46, 828.60 284.66, 830.89 281.86 C 833.19 279.06, 834.60 278.12, 835.85 276.05 C 837.10 273.99, 837.01 272.93, 837.14 271.52 C 837.27 270.10, 837.08 269.77, 836.50 268.96 C 835.92 268.15, 835.19 267.71, 834.23 267.48" style="stroke: black; fill: black;"/><path d="M 795.43,314.19 C 796.23 315.08, 796.91 315.29, 798.78 315.61 C 800.65 315.92, 801.89 316.04, 804.78 315.75 C 807.67 315.46, 809.58 314.67, 813.23 314.17 C 816.89 313.66, 819.08 313.46, 823.05 313.23 C 827.01 313.00, 829.18 312.95, 833.06 313.03 C 836.94 313.11, 839.20 313.42, 842.45 313.64 C 845.71 313.87, 847.16 314.13, 849.33 314.17 C 851.50 314.21, 852.19 314.11, 853.30 313.85 C 854.41 313.59, 854.53 313.17, 854.88 312.86 C 855.23 312.56, 854.83 312.44, 855.06 312.34 C 855.29 312.23, 855.81 312.64, 856.04 312.33 C 856.27 312.02, 856.55 311.52, 856.22 310.77 C 855.88 310.03, 855.59 309.35, 854.36 308.62 C 853.12 307.89, 852.35 307.51, 850.04 307.10 C 847.72 306.70, 846.17 306.67, 842.79 306.59 C 839.40 306.50, 837.08 306.64, 833.10 306.68 C 829.12 306.71, 826.94 306.76, 822.88 306.75 C 818.81 306.73, 816.59 306.65, 812.77 306.60 C 808.94 306.56, 806.78 306.15, 803.75 306.53 C 800.71 306.90, 799.38 307.55, 797.59 308.47 C 795.80 309.40, 795.25 309.99, 794.82 311.13 C 794.38 312.27, 794.64 313.29, 795.43 314.19" style="stroke: black; fill: black;"/></svg>